Coordinates
version=1
nRows=14
nColumns=24
inDegrees=yes

Units are S.I. units (second, meters, Newtons, ...)
Angles are in degrees.

endheader
time	pelvis_tilt	pelvis_list	pelvis_rotation	pelvis_tx	pelvis_ty	pelvis_tz	hip_flexion_r	hip_adduction_r	hip_rotation_r	knee_angle_r	ankle_angle_r	subtalar_angle_r	mtp_angle_r	hip_flexion_l	hip_adduction_l	hip_rotation_l	knee_angle_l	ankle_angle_l	subtalar_angle_l	mtp_angle_l	lumbar_extension	lumbar_bending	lumbar_rotation
      1.65333333	      0.01021747	      9.11931950	     -4.87840278	      0.49385788	      1.01006274	      0.32776420	     19.60077760	    -13.00658841	      3.53110352	    -70.13905145	      2.98866920	     -0.22252458	      6.04656877	      7.26758209	     14.64200047	      3.85747452	    -15.00511147	      2.79408141	    -20.74215773	     -7.89212567	    -13.14556976	     -4.91896507	     -2.60478697
      1.65750000	      0.03879376	      8.97536868	     -4.69481517	      0.49844810	      1.01090122	      0.32733353	     20.00942637	    -12.80785944	      3.42710265	    -69.60543938	      3.71972477	      0.05600492	      5.91848069	      6.71380050	     14.53679502	      4.07758624	    -14.61465331	      2.80450352	    -20.67639025	     -7.94517199	    -13.19236976	     -4.70277782	     -2.74657260
      1.66166667	      0.08151819	      8.84380642	     -4.50854416	      0.50300204	      1.01171443	      0.32689917	     20.39521367	    -12.62742364	      3.32005848	    -69.03419197	      4.44490686	      0.27892651	      5.77405126	      6.14188350	     14.44415034	      4.31171830	    -14.20425609	      2.75229126	    -20.65198637	     -8.00258363	    -13.27072415	     -4.48818156	     -2.97596069
      1.66583333	      0.07131120	      8.71465015	     -4.31888677	      0.50753186	      1.01241923	      0.32650569	     20.82890708	    -12.43553545	      3.22173817	    -68.42335064	      5.13469839	      0.36429372	      5.71128463	      5.65059838	     14.33673479	      4.48376595	    -13.83511541	      2.69184845	    -20.57332448	     -8.02846121	    -13.28680122	     -4.28783876	     -3.07803290
      1.67000000	      0.11254928	      8.61848105	     -4.11825819	      0.51207218	      1.01316289	      0.32603691	     21.19503656	    -12.31129538	      3.10266103	    -67.77030536	      5.76068067	      0.61529568	      4.67140833	      5.03662451	     14.29154034	      4.90253744	    -13.32289347	      2.44901065	    -20.84633446	     -8.36748278	    -13.35290698	     -4.11075302	     -3.39087701
      1.67416667	      0.18500493	      8.50416995	     -3.97370433	      0.51658904	      1.01390000	      0.32572193	     21.52362026	    -12.13377480	      3.04351252	    -67.07255686	      6.40395330	      0.72238266	      4.55885027	      4.45043911	     14.19069289	      5.02062693	    -12.92497606	      2.49333218	    -20.67559773	     -8.39832332	    -13.46535196	     -3.93442374	     -3.57509280
      1.67833333	      0.18236258	      8.39355579	     -3.79355072	      0.52108107	      1.01448882	      0.32536961	     21.91662898	    -11.96341687	      2.95687447	    -66.34115931	      7.00041721	      0.75041754	      4.50388357	      3.95260848	     14.08982411	      5.18342690	    -12.54323769	      2.44623280	    -20.56935318	     -8.41372458	    -13.49416242	     -3.75681985	     -3.67511492
      1.68250000	      0.25301146	      8.31229679	     -3.63294094	      0.52558037	      1.01513564	      0.32502982	     22.22296096	    -11.83913475	      2.88002670	    -65.56556703	      7.52794641	      0.85359332	      4.37167534	      3.33917960	     14.02831067	      5.43305553	    -12.07671652	      2.37252854	    -20.58872278	     -8.44474331	    -13.59298435	     -3.60696159	     -3.94799404
      1.68666667	      0.27685431	      8.23034958	     -3.46246643	      0.53005271	      1.01567668	      0.32470041	     22.56737652	    -11.70461102	      2.80595466	    -64.75515234	      8.02562957	      0.84317060	      4.20953238	      2.78905061	     13.95795747	      5.67036408	    -11.63230738	      2.25876224	    -20.61750719	     -8.47833750	    -13.64500048	     -3.46200774	     -4.14085601
      1.69083333	      0.28542079	      8.16270335	     -3.28835301	      0.53450663	      1.01616988	      0.32439095	     22.91535137	    -11.58265750	      2.73920875	    -63.90629576	      8.49135117	      0.76909125	      3.97072706	      2.25773889	     13.89561959	      5.90601562	    -11.18514312	      2.10451929	    -20.64226764	     -8.52007141	    -13.68845762	     -3.34835727	     -4.32596201
      1.69500000	      0.31457817	      8.08898266	     -3.13132004	      0.53896370	      1.01663636	      0.32411135	     23.22697007	    -11.45325786	      2.67810281	    -63.01448963	      8.90780926	      0.69431387	      3.81727285	      1.71150974	     13.82238239	      6.09908387	    -10.75379559	      2.05088487	    -20.60773907	     -8.54101249	    -13.74084317	     -3.21309250	     -4.45353290
      1.69916667	      0.33414267	      8.02543611	     -2.96481499	      0.54339495	      1.01706257	      0.32384346	     23.53372539	    -11.33492391	      2.61479913	    -62.08397446	      9.28158949	      0.54684456	      3.65720470	      1.17396916	     13.75450608	      6.31194243	    -10.31369803	      1.94827320	    -20.59515322	     -8.55921740	    -13.79051650	     -3.09746388	     -4.61520150
      1.70333333	      0.33011502	      7.96035866	     -2.78538519	      0.54780926	      1.01741454	      0.32358705	     23.84586096	    -11.21601336	      2.54404877	    -61.11624053	      9.65855364	      0.36562773	      3.56787405	      0.68357966	     13.67686952	      6.48433139	     -9.91836361	      1.85755015	    -20.52269005	     -8.56687979	    -13.81962871	     -2.99836030	     -4.71525960
      1.70750000	      0.33265326	      7.91665701	     -2.62124602	      0.55221918	      1.01772672	      0.32335429	     24.14635623	    -11.11687923	      2.49197311	    -60.11783666	      9.95674685	      0.13260412	      3.47473572	      0.17305286	     13.62059542	      6.68202802	     -9.48950543	      1.76231655	    -20.47731512	     -8.57229459	    -13.85362086	     -2.90942233	     -4.85579366
